{"title":"You.Are.Not.Alone(Du.er.ikke.alene)1978.WS.DVDRip.XviD-AtreyU","uid":4587520,"size":724460294,"categoryP":"video","categoryS":"movies","magnet":"?xt=urn:btih:87c618bbaa74428f8d8f3481619f6c0c9fb1ecba&amp;dn=You.Are.Not.Alone%28Du.er.ikke.alene%291978.WS.DVDRip.XviD-AtreyU&amp;tr=udp%3A%2F%2Ftracker.openbittorrent.com%3A80&amp;tr=udp%3A%2F%2Fopen.demonii.com%3A1337&amp;tr=udp%3A%2F%2Ftracker.coppersurfer.tk%3A6969&amp;tr=udp%3A%2F%2Fexodus.desync.com%3A6969","seeders":2,"leechers":0,"uploader":"vasconi","files":-1,"time":1229692682,"description":"Excellent movie, if  you have an  open mind. The two boy's  relationship grows in a very\ninnocent  manner.  Even  if  you are heterosexual, you  can probably identify with the feeling \nof your first infatuation for another  person and all the  little moments together that seemed \nspecial. This movie deals  with first love, of another  kind, in an extremely tasteful manner. \nMy only regret is that,  in America, people  will not  tolerate movies like this one. It makes \nit very hard to hear of, and also see movies with such an explosive subject. I would recommend \nit,because it's on DVD now,with great quality.\n\nI'm sharing a DVDRip copy from my own DVD,as I mentioned,with great quality,so all BL to have it.\nVivat BL !!!!!!\n\nSubttitle : ENGLISH\n\nGeneral\n\nFormat                           : AVI\nFormat/Info                      : Audio Video Interleave\nFile size                        : 694 MiB\nDuration                         : 1h 31mn\nOverall bit rate                 : 1 058 Kbps\n\n\nVideo\n\nFormat                           : MPEG-4 Visual\nFormat profile                   : Streaming Video@L1\nFormat settings, BVOP            : Yes\nFormat settings, QPel            : No\nFormat settings, GMC             : No warppoints\nFormat settings, Matrix          : Default\nMuxing mode                      : Packed bitstream\nCodec ID                         : XVID\nCodec ID/Hint                    : XviD\nDuration                         : 1h 31mn\nBit rate                         : 919 Kbps\nWidth                            : 544 pixels\nHeight                           : 304 pixels\nDisplay aspect ratio             : 16/9\nFrame rate                       : 29.970 fps\nResolution                       : 24 bits\nColorimetry                      : 4:2:0\nScan type                        : Progressive\nBits/(Pixel*Frame)               : 0.185\nStream size                      : 602 MiB (87%)\nWriting library                  : XviD 1.2.0.dev47 (UTC 2006-11-01)\n\nAudio\n\nFormat                           : MPEG Audio\nFormat version                   : Version 1\nFormat profile                   : Layer 3\nCodec ID                         : 55\nCodec ID/Hint                    : MP3\nDuration                         : 1h 31mn\nBit rate mode                    : Constant\nBit rate                         : 128 Kbps\nMinimum bit rate                 : 128 Kbps\nChannel(s)                       : 2 channels\nSampling rate                    : 48.0 KHz\nResolution                       : 16 bits\nStream size                      : 83.9 MiB (12%)\nAlignment                        : Aligned on interleaves\nInterleave, duration             : 33 ms (1.00 video frame)\nInterleave, preload duration     : 504 ms\nWriting library                  : LAME3.97 \nEncoding settings                : CBR\n &lt;a href=&quot;\nhttp://www.imdb.com/title/tt0080662/&quot; rel=&quot;nofollow&quot; target=&quot;_NEW&quot;&gt;\nhttp://www.imdb.com/title/tt0080662/&lt;/a&gt;\nRipper: vasconi","torrent":{"xt":"urn:btih:87c618bbaa74428f8d8f3481619f6c0c9fb1ecba","amp;dn":"You.Are.Not.Alone%28Du.er.ikke.alene%291978.WS.DVDRip.XviD-AtreyU","amp;tr":["udp%3A%2F%2Ftracker.openbittorrent.com%3A80","udp%3A%2F%2Fopen.demonii.com%3A1337","udp%3A%2F%2Ftracker.coppersurfer.tk%3A6969","udp%3A%2F%2Fexodus.desync.com%3A6969"],"infoHash":"87c618bbaa74428f8d8f3481619f6c0c9fb1ecba","infoHashBuffer":{"type":"Buffer","data":[135,198,24,187,170,116,66,143,141,143,52,129,97,159,108,12,159,177,236,186]},"announce":[],"urlList":[]}}